HIERARCHY
ROOT Hips
{
	OFFSET 0.000000 0.000000 0.000000
	CHANNELS 6 Xposition Yposition Zposition Zrotation Yrotation Xrotation 
	JOINT LHipJoint
	{
		OFFSET 0.000000 0.000000 0.000000
		CHANNELS 3 Zrotation Yrotation Xrotation
		JOINT LeftUpLeg
		{
			OFFSET 1.363060 -1.794630 0.839290
			CHANNELS 3 Zrotation Yrotation Xrotation
			JOINT LeftLeg
			{
				OFFSET 2.448110 -6.726130 0.000000
				CHANNELS 3 Zrotation Yrotation Xrotation
				JOINT LeftFoot
				{
					OFFSET 2.562200 -7.039590 0.000000
					CHANNELS 3 Zrotation Yrotation Xrotation
					JOINT LeftToeBase
					{
						OFFSET 0.157640 -0.433110 2.322550
						CHANNELS 3 Zrotation Yrotation Xrotation
						End Site
						{
							OFFSET 0.000000 0.000000 0.000000
						}
					}
				}
			}
		}
	}
	JOINT RHipJoint
	{
		OFFSET 0.000000 0.000000 0.000000
		CHANNELS 3 Zrotation Yrotation Xrotation
		JOINT RightUpLeg
		{
			OFFSET -1.305520 -1.794630 0.839290
			CHANNELS 3 Zrotation Yrotation Xrotation
			JOINT RightLeg
			{
				OFFSET -2.542530 -6.985550 0.000000
				CHANNELS 3 Zrotation Yrotation Xrotation
				JOINT RightFoot
				{
					OFFSET -2.568260 -7.056230 0.000000
					CHANNELS 3 Zrotation Yrotation Xrotation
					JOINT RightToeBase
					{
						OFFSET -0.164730 -0.452590 2.363150
						CHANNELS 3 Zrotation Yrotation Xrotation
						End Site
						{
							OFFSET 0.000000 0.000000 0.000000
						}
					}
				}
			}
		}
	}
}
MOTION
Frames: 14
Frame Time: 0.008333
0.877643 17.330540 1.035277 0.777844 -83.904505 9.945321 -9.845851 1.738843 4.746814 -10.000238 -9.784098 -17.584466 -1.777690 -0.448381 11.493227 1.370520 7.795755 -5.283368 0.470400 -0.000000 -32.819500 10.319711 -0.433283 0.160257 7.098696 -5.328247 -35.139689 -0.773214 -3.190385 52.341215 -1.532845 -7.217135 11.180953 -2.328200 0.000000 -79.353500
0.911123 17.331293 1.076139 -1.102615 -83.789812 11.548532 -9.940042 1.663857 4.498549 -9.969562 -9.191243 -17.318168 -1.789207 -0.428090 11.569675 1.289963 7.335598 -5.235846 0.439800 -0.000000 -33.256000 10.372743 -0.107260 -0.005913 7.043581 -5.569974 -38.061119 -1.134785 -3.439678 57.014945 -1.626494 -6.840384 15.519508 -2.470400 0.000000 -79.471899
0.947452 17.332573 1.115471 -3.170817 -83.701335 13.285517 -10.039424 1.581139 4.219061 -9.908772 -8.552530 -16.969048 -1.795313 -0.404694 11.628146 1.213755 6.900034 -5.186645 0.410399 0.000000 -33.686000 10.386413 0.244358 -0.183888 7.027813 -5.773477 -40.937914 -1.427808 -3.666644 61.518088 -1.739256 -6.281526 19.729213 -2.450500 -0.000001 -78.614400
0.985983 17.334441 1.153334 -5.473874 -83.635981 15.208746 -10.142822 1.492494 3.920883 -9.804732 -7.914270 -16.547876 -1.792098 -0.376647 11.680035 1.147715 6.522968 -5.142557 0.383800 0.000001 -34.086200 10.364716 0.606530 -0.381001 7.066862 -5.951765 -43.768376 -1.661234 -3.890802 65.847537 -1.848378 -5.554054 23.573265 -2.255600 -0.000000 -77.103000
1.025986 17.337054 1.190007 -8.064156 -83.585284 17.379896 -10.250794 1.399726 3.617290 -9.643979 -7.317895 -16.072630 -1.776410 -0.342597 11.740169 1.095817 6.227975 -5.111098 0.360500 -0.000000 -34.438500 10.312887 0.967159 -0.601449 7.177737 -6.116017 -46.559261 -1.858541 -4.126278 70.003712 -1.936071 -4.701333 26.871163 -1.903401 -0.000000 -75.369299
1.066688 17.340480 1.225769 -10.955872 -83.536698 19.824784 -10.364211 1.304007 3.320275 -9.418435 -6.800606 -15.561217 -1.746252 -0.301888 11.819850 1.060739 6.032451 -5.097592 0.341100 -0.000000 -34.730801 10.235470 1.319589 -0.846376 7.371522 -6.273670 -49.321698 -2.047839 -4.379649 73.988512 -1.992466 -3.777299 29.511598 -1.432499 0.000000 -73.839700
1.107381 17.344765 1.260978 -14.126354 -83.472747 22.533958 -10.484601 1.206062 3.040991 -9.124061 -6.391664 -15.036306 -1.700835 -0.254437 11.930559 1.043366 5.942818 -5.106133 0.325400 -0.000000 -34.955900 10.134467 1.661143 -1.112215 7.653311 -6.426621 -52.071806 -2.253737 -4.650676 77.802778 -2.014174 -2.827906 31.442406 -0.886500 0.000001 -72.755300
1.146902 17.349877 1.295725 -17.452521 -83.374358 25.408329 -10.610941 1.106600 2.791895 -8.766933 -6.122163 -14.527953 -1.640699 -0.201729 12.079364 1.044308 5.964323 -5.138064 0.313600 -0.000001 -35.108100 10.010415 1.992462 -1.389027 8.015285 -6.571072 -54.837852 -2.492705 -4.934960 81.441311 -2.002414 -1.884706 32.670999 -0.305400 0.000000 -72.324800
1.185630 17.355752 1.330459 -20.883122 -83.230743 28.388702 -10.747511 1.004049 2.566076 -8.348284 -5.972231 -14.025825 -1.567647 -0.143193 12.265023 1.059391 6.071947 -5.190833 0.304200 0.000000 -35.205200 9.861458 2.313715 -1.676559 8.448820 -6.701734 -57.602873 -2.771967 -5.225451 84.888439 -1.958157 -0.947268 33.226183 0.291300 -0.000000 -72.364100
1.222757 17.362247 1.365236 -24.262885 -83.029327 31.339597 -10.892951 0.898435 2.367875 -7.878253 -5.941541 -13.555901 -1.484263 -0.080702 12.491411 1.085908 6.247916 -5.263521 0.296200 0.000000 -35.252000 9.686182 2.626436 -1.961191 8.933692 -6.805642 -60.388203 -3.090125 -5.514774 88.121924 -1.884557 -0.011689 33.193013 0.886400 0.000000 -72.875900
1.258539 17.369094 1.400580 -27.566488 -82.765420 34.233169 -11.052656 0.788144 2.187249 -7.353006 -5.982086 -13.123878 -1.393611 -0.013851 12.764457 1.116753 6.444268 -5.357280 0.286400 0.000000 -35.269099 9.480326 2.930272 -2.236830 9.459874 -6.866762 -63.181781 -3.437444 -5.794135 91.107986 -1.784879 0.932784 32.684052 1.470200 0.000000 -73.736600
1.292009 17.375915 1.435356 -30.503386 -82.443193 36.803498 -11.210285 0.674718 2.030355 -6.814226 -6.118689 -12.740510 -1.299870 0.052268 13.061909 1.153482 6.675730 -5.459906 0.277400 0.000000 -35.250300 9.252207 3.230698 -2.484846 9.966714 -6.877363 -66.021678 -3.803187 -6.062857 93.831842 -1.662388 1.911142 31.829305 2.045700 0.000000 -74.659901
1.323907 17.382357 1.469935 -33.151439 -82.070792 39.114791 -11.370946 0.556494 1.879658 -6.256844 -6.282375 -12.397052 -1.206555 0.118876 13.386448 1.188038 6.887822 -5.573654 0.265800 0.000000 -35.217000 8.999383 3.527654 -2.703273 10.442396 -6.824942 -68.882936 -4.169762 -6.314585 96.260683 -1.523388 2.921221 30.784197 2.604500 -0.000000 -75.421900
1.354373 17.387990 1.503663 -35.456967 -81.662996 41.110799 -11.526739 0.433526 1.727213 -5.702992 -6.453845 -12.080618 -1.117212 0.184246 13.721474 1.218766 7.072280 -5.692395 0.252000 0.000001 -35.173700 8.727287 3.824580 -2.885314 10.847926 -6.705922 -71.764214 -4.520740 -6.547876 98.375184 -1.376493 3.952727 29.713151 3.142300 0.000000 -75.855800
